<svg width="18" height="18" viewBox="0 0 18 18" fill="none" xmlns="http://www.w3.org/2000/svg">
<path d="M7.99988 9.00004C8.24482 9.00007 8.48122 9.08999 8.66426 9.25275C8.84729 9.41551 8.96423 9.63979 8.99288 9.88304L8.99988 10V15C8.9996 15.2549 8.90201 15.5001 8.72704 15.6854C8.55207 15.8707 8.31293 15.9823 8.05849 15.9972C7.80405 16.0121 7.55351 15.9294 7.35805 15.7658C7.1626 15.6022 7.03699 15.3701 7.00688 15.117L6.99988 15V12.414L1.70688 17.707C1.52693 17.8864 1.28545 17.9905 1.0315 17.9983C0.777551 18.006 0.530171 17.9168 0.339606 17.7488C0.14904 17.5808 0.0295792 17.3465 0.00548562 17.0936C-0.018608 16.8406 0.0544727 16.588 0.209884 16.387L0.292884 16.293L5.58589 11H2.99988C2.745 10.9998 2.49985 10.9022 2.31452 10.7272C2.12918 10.5522 2.01765 10.3131 2.00271 10.0586C1.98778 9.8042 2.07056 9.55366 2.23415 9.3582C2.39774 9.16275 2.62979 9.03714 2.88288 9.00704L2.99988 9.00004H7.99988ZM16.2929 0.293037C16.4728 0.113689 16.7143 0.00956371 16.9683 0.00180912C17.2222 -0.00594548 17.4696 0.0832524 17.6602 0.251286C17.8507 0.41932 17.9702 0.653589 17.9943 0.906512C18.0184 1.15943 17.9453 1.41205 17.7899 1.61304L17.7069 1.70704L12.4139 7.00004H14.9999C15.2548 7.00032 15.4999 7.09792 15.6853 7.27289C15.8706 7.44785 15.9821 7.68699 15.9971 7.94143C16.012 8.19587 15.9292 8.44642 15.7656 8.64187C15.602 8.83732 15.37 8.96293 15.1169 8.99304L14.9999 9.00004H9.99988C9.75495 9 9.51855 8.91008 9.33551 8.74732C9.15248 8.58456 9.03554 8.36029 9.00688 8.11704L8.99988 8.00004V3.00004C9.00017 2.74516 9.09776 2.5 9.27273 2.31467C9.4477 2.12933 9.68684 2.0178 9.94128 2.00287C10.1957 1.98793 10.4463 2.07071 10.6417 2.2343C10.8372 2.39789 10.9628 2.62994 10.9929 2.88304L10.9999 3.00004V5.58604L16.2929 0.293037Z" fill="white"/>
</svg>
