<svg width="79" height="84" viewBox="0 0 79 84" fill="none" xmlns="http://www.w3.org/2000/svg">
<path d="M71.8829 66.4769L70.0397 64.874L77.573 66.557V70.0031H56.7361V66.557L65.0708 64.9542L64.4297 66.0761L60.1822 53.2534L61.3843 54.2151H36.8608L37.9828 53.2534L33.4147 65.9159L33.014 65.0343L41.1885 66.557V70.0031H21.4735V66.557L28.8466 64.874L27.1636 66.3166L46.7183 14.144L53.3701 13.9036L71.8829 66.4769ZM38.8644 50.4484L38.2232 49.4066H60.102L59.3808 50.5286L48.8821 17.9107L50.4048 17.9909L38.8644 50.4484Z" fill="#262626"/>
<path d="M50.73 16.5263L48.8867 18.1291L56.4201 16.4461V13H35.5831V16.4461L43.9179 18.049L43.2768 16.927L39.0292 29.7497L40.2314 28.788H15.7079L16.8298 29.7497L12.2617 17.0872L11.861 17.9688L20.0355 16.4461V13H0.320569V16.4461L7.69365 18.1291L6.01066 16.6865L25.5653 68.8591L32.2171 69.0995L50.73 16.5263ZM17.7114 32.5547L17.0703 33.5965H38.9491L38.2278 32.4745L27.7292 65.0924L29.2519 65.0122L17.7114 32.5547Z" fill="#262626"/>
</svg>
