<svg width="18" height="18" viewBox="0 0 18 18" fill="none" xmlns="http://www.w3.org/2000/svg">
<path d="M6.793 9.793C6.97296 9.61365 7.21443 9.50953 7.46838 9.50177C7.72233 9.49402 7.96971 9.58321 8.16028 9.75125C8.35084 9.91928 8.47031 10.1536 8.4944 10.4065C8.51849 10.6594 8.44541 10.912 8.29 11.113L8.207 11.207L3.414 16H6C6.25488 16.0003 6.50003 16.0979 6.68537 16.2728C6.8707 16.4478 6.98224 16.687 6.99717 16.9414C7.01211 17.1958 6.92933 17.4464 6.76574 17.6418C6.60215 17.8373 6.3701 17.9629 6.117 17.993L6 18H1C0.755067 18 0.518663 17.91 0.335628 17.7473C0.152593 17.5845 0.0356572 17.3603 0.00699997 17.117L0 17V12C0.000282707 11.7451 0.0978791 11.5 0.272848 11.3146C0.447818 11.1293 0.686953 11.0178 0.941395 11.0028C1.19584 10.9879 1.44638 11.0707 1.64183 11.2343C1.83729 11.3979 1.9629 11.6299 1.993 11.883L2 12V14.586L6.793 9.793ZM17 0C17.2449 3.23106e-05 17.4813 0.0899562 17.6644 0.252715C17.8474 0.415475 17.9643 0.639749 17.993 0.883L18 1V6C17.9997 6.25488 17.9021 6.50003 17.7272 6.68537C17.5522 6.8707 17.313 6.98224 17.0586 6.99717C16.8042 7.01211 16.5536 6.92933 16.3582 6.76574C16.1627 6.60215 16.0371 6.3701 16.007 6.117L16 6V3.414L11.207 8.207C11.027 8.38635 10.7856 8.49047 10.5316 8.49823C10.2777 8.50598 10.0303 8.41679 9.83972 8.24875C9.64916 8.08072 9.52969 7.84645 9.5056 7.59353C9.48151 7.3406 9.55459 7.08799 9.71 6.887L9.793 6.793L14.586 2H12C11.7451 1.99972 11.5 1.90212 11.3146 1.72715C11.1293 1.55218 11.0178 1.31305 11.0028 1.05861C10.9879 0.804163 11.0707 0.553621 11.2343 0.358167C11.3979 0.162714 11.6299 0.0371036 11.883 0.00699997L12 0H17Z" fill="white"/>
</svg>
